<svg width="24" height="24" viewBox="0 0 24 24" fill="none" xmlns="http://www.w3.org/2000/svg">
<rect width="24" height="24" rx="2" fill="white"/>
<path d="M15.85 5H8.14996C4.75945 5 2 7.68956 2 10.9966C2 12.8693 2.8861 14.5437 4.27023 15.6446C5.9325 17.0896 9.8496 20 9.8496 20L9.83971 16.9921H15.85C19.2405 16.9921 22 14.3014 22 10.9966C22 7.6917 19.2405 5 15.85 5ZM12.1253 13.5328C8.40721 13.5328 5.73351 11.9688 5.5664 11.8702L6.56025 10.2912L7.5442 8.709C7.7201 8.81083 11.9252 11.1992 16.5899 8.67255L18.4325 11.911C16.1876 13.1266 14.0207 13.5328 12.1242 13.5328H12.1253Z" fill="#18181B"/>
</svg>
